STARTFONT 2.1
COMMENT
COMMENT Converted from OpenType font "Manrope-ExtraLight.otf" by "otf2bdf 3.0".
COMMENT
FONT -FreeType-Manrope ExtraLight-Medium-R-Normal--47-340-100-100-P-203-ISO10646-1
SIZE 34 100 100
FONTBOUNDINGBOX 44 57 -1 -11
STARTPROPERTIES 19
FOUNDRY "FreeType"
FAMILY_NAME "Manrope ExtraLight"
WEIGHT_NAME "Medium"
SLANT "R"
SETWIDTH_NAME "Normal"
ADD_STYLE_NAME ""
PIXEL_SIZE 47
POINT_SIZE 340
RESOLUTION_X 100
RESOLUTION_Y 100
SPACING "P"
AVERAGE_WIDTH 203
CHARSET_REGISTRY "ISO10646"
CHARSET_ENCODING "1"
FONT_ASCENT 50
FONT_DESCENT 14
COPYRIGHT "Copyright 2019-2021 The Manrope Project Authors (https://github.com/sharanda/manrope)"
_OTF_FONTFILE "Manrope-ExtraLight.otf"
_OTF_PSNAME "Manrope-ExtraLight"
ENDPROPERTIES
CHARS 191
STARTCHAR 0020
ENCODING 32
SWIDTH 190 0
DWIDTH 9 0
BBX 0 0 0 0
BITMAP
ENDCHAR
STARTCHAR 0021
ENCODING 33
SWIDTH 275 0
DWIDTH 13 0
BBX 2 34 6 0
BITMAP
C0
C0
C0
C0
C0
C0
C0
C0
C0
C0
C0
C0
C0
C0
C0
C0
C0
C0
C0
C0
C0
C0
C0
C0
C0
C0
00
00
00
00
00
C0
C0
C0
ENDCHAR
STARTCHAR 0022
ENCODING 34
SWIDTH 338 0
DWIDTH 16 0
BBX 8 9 3 25
BITMAP
C3
C3
C3
C3
C3
C3
C3
C3
C3
ENDCHAR
STARTCHAR 0023
ENCODING 35
SWIDTH 910 0
DWIDTH 43 0
BBX 37 34 3 0
BITMAP
0000C01C00
0000C01800
0000C01800
0001801800
0001803000
0001803000
0001803000
0003003000
0003006000
0003006000
1FFFFFFFF8
1FFFFFFFF8
000600C000
000600C000
000C00C000
000C01C000
000C018000
000C018000
0018018000
0018030000
0018030000
FFFFFFFFC0
FFFFFFFFC0
0030060000
0030060000
0070060000
0060060000
00600C0000
00600C0000
00C00C0000
00C01C0000
00C0180000
00C0180000
0180180000
ENDCHAR
STARTCHAR 0024
ENCODING 36
SWIDTH 571 0
DWIDTH 27 0
BBX 24 42 1 -4
BITMAP
001800
001800
001800
001800
00FF00
03FFC0
0F80F0
1E0038
18001C
38000E
300006
300007
300003
300003
300000
380000
1C0000
0E0000
07C000
01F800
003F80
0007E0
0000F8
00001C
00000E
000007
000003
000003
000003
E00003
600003
600003
300006
38000E
1E001C
0F8078
03FFF0
007F80
001800
001800
001800
001800
ENDCHAR
STARTCHAR 0025
ENCODING 37
SWIDTH 910 0
DWIDTH 43 0
BBX 37 34 3 0
BITMAP
03E0000040
1FF80000E0
3C1C0001C0
7006000380
6003000700
C003000E00
C001801C00
C001803800
C001807000
C00180E000
E00301C000
6003038000
7006070000
3C1C0E0000
1FF81C0000
07E0380000
0000700000
0000E00000
0001C07E00
000381FF80
000703C1C0
000E070060
001C060070
00380C0030
00700C0018
00E00C0018
01C00C0018
03800C0018
07000C0030
0E00060070
1C000700E0
380003C1C0
700001FF80
2000007E00
ENDCHAR
STARTCHAR 0026
ENCODING 38
SWIDTH 635 0
DWIDTH 30 0
BBX 28 34 2 0
BITMAP
00FE0000
03FFC000
0781E000
0E007000
1C003800
18000000
18000000
38000000
38000000
38000000
18000000
18000000
1C000000
0E000000
07000000
03800000
07C00000
0FE00000
3C300000
30180300
700C0300
60060300
60038300
E001C300
C0006300
E0003300
60001F00
60000E00
70000E00
30000F00
1C003980
0F00F0C0
07FFE070
00FF0020
ENDCHAR
STARTCHAR 0027
ENCODING 39
SWIDTH 190 0
DWIDTH 9 0
BBX 2 9 3 25
BITMAP
C0
C0
C0
C0
C0
C0
C0
C0
C0
ENDCHAR
STARTCHAR 0028
ENCODING 40
SWIDTH 402 0
DWIDTH 19 0
BBX 10 47 7 -8
BITMAP
00C0
01C0
0380
0300
0600
0E00
0C00
1C00
1800
3800
3000
3000
6000
6000
6000
C000
C000
C000
C000
C000
C000
C000
8000
8000
C000
C000
C000
C000
C000
C000
C000
6000
6000
6000
7000
3000
3000
1800
1800
0C00
0C00
0600
0700
0300
0180
01C0
0080
ENDCHAR
STARTCHAR 0029
ENCODING 41
SWIDTH 402 0
DWIDTH 19 0
BBX 11 47 2 -8
BITMAP
C000
6000
7000
3800
1800
1C00
0C00
0600
0600
0300
0300
0380
0180
0180
0180
00C0
00C0
00C0
00C0
00C0
0060
0060
0060
0060
0060
0060
0040
00C0
00C0
00C0
00C0
00C0
0180
0180
0180
0300
0300
0700
0600
0E00
0C00
1C00
1800
3000
7000
E000
4000
ENDCHAR
STARTCHAR 002A
ENCODING 42
SWIDTH 423 0
DWIDTH 20 0
BBX 15 14 2 20
BITMAP
0300
0300
0300
0300
8300
F33E
7FFC
0FC0
0780
0FC0
0CE0
1860
3830
3030
ENDCHAR
STARTCHAR 002B
ENCODING 43
SWIDTH 571 0
DWIDTH 27 0
BBX 22 22 3 6
BITMAP
003000
003000
003000
003000
003000
003000
003000
003000
003000
003000
FFFFFC
FFFFFC
003000
003000
003000
003000
003000
003000
003000
003000
003000
003000
ENDCHAR
STARTCHAR 002C
ENCODING 44
SWIDTH 232 0
DWIDTH 11 0
BBX 3 8 3 -5
BITMAP
E0
E0
E0
E0
60
60
60
C0
ENDCHAR
STARTCHAR 002D
ENCODING 45
SWIDTH 423 0
DWIDTH 20 0
BBX 14 2 3 14
BITMAP
FFFC
FFFC
ENDCHAR
STARTCHAR 002E
ENCODING 46
SWIDTH 211 0
DWIDTH 10 0
BBX 3 3 4 0
BITMAP
E0
E0
E0
ENDCHAR
STARTCHAR 002F
ENCODING 47
SWIDTH 360 0
DWIDTH 17 0
BBX 11 34 3 0
BITMAP
0060
00E0
00C0
00C0
00C0
01C0
0180
0180
0180
0300
0300
0300
0300
0600
0600
0600
0E00
0C00
0C00
0C00
1C00
1800
1800
1800
3000
3000
3000
3000
6000
6000
6000
E000
C000
C000
ENDCHAR
STARTCHAR 0030
ENCODING 48
SWIDTH 571 0
DWIDTH 27 0
BBX 21 34 3 0
BITMAP
01FC00
07FF00
0F0780
1C01C0
380060
700030
600030
600018
C00018
C00018
C00018
C00018
C00018
C00018
C00018
C00018
C00018
C00018
C00018
C00018
C00018
C00018
C00018
C00018
C00018
C00018
600018
600030
700030
380060
1C01C0
0F0780
07FF00
01FC00
ENDCHAR
STARTCHAR 0031
ENCODING 49
SWIDTH 360 0
DWIDTH 17 0
BBX 8 34 3 0
BITMAP
07
0F
3F
F3
E3
83
03
03
03
03
03
03
03
03
03
03
03
03
03
03
03
03
03
03
03
03
03
03
03
03
03
03
03
03
ENDCHAR
STARTCHAR 0032
ENCODING 50
SWIDTH 550 0
DWIDTH 26 0
BBX 22 34 2 0
BITMAP
00FC00
03FF80
0F03C0
1C00E0
380070
300030
700018
600018
60000C
60000C
00000C
00000C
00000C
000018
000018
000038
000030
000060
0000C0
000380
000700
000E00
001C00
003800
007000
00E000
01C000
070000
0E0000
1C0000
380000
700000
FFFFFC
FFFFFC
ENDCHAR
STARTCHAR 0033
ENCODING 51
SWIDTH 529 0
DWIDTH 25 0
BBX 20 34 2 0
BITMAP
7FFFF0
7FFFF0
000070
0000E0
0001C0
000300
000600
001C00
003800
007000
00E000
01C000
038000
07FC00
0FFF00
060780
0001C0
0000E0
000060
000070
000030
000030
000030
000030
000030
000030
000030
C00070
E00060
6000E0
3801C0
1E0780
0FFF00
03FC00
ENDCHAR
STARTCHAR 0034
ENCODING 52
SWIDTH 571 0
DWIDTH 27 0
BBX 23 34 2 0
BITMAP
000C00
001C00
001800
003800
003000
007000
006000
006000
00C000
00C000
018000
018000
030000
030000
060060
060060
0E0060
0C0060
1C0060
180060
380060
300060
300060
600060
600060
FFFFFE
FFFFFE
000060
000060
000060
000060
000060
000060
000060
ENDCHAR
STARTCHAR 0035
ENCODING 53
SWIDTH 571 0
DWIDTH 27 0
BBX 22 34 3 0
BITMAP
7FFFE0
7FFFE0
600000
600000
600000
600000
600000
600000
600000
600000
600000
600000
C1FC00
C7FF00
DE0780
F801E0
F00060
E00030
000038
000018
000018
00000C
00000C
00000C
00001C
800018
C00018
C00038
600030
700060
3801E0
1E0780
07FF00
01FC00
ENDCHAR
STARTCHAR 0036
ENCODING 54
SWIDTH 614 0
DWIDTH 29 0
BBX 23 34 3 0
BITMAP
00FE00
03FF80
0F01E0
1C0070
380038
300018
600000
600000
600000
C00000
C00000
C00000
C0FE00
C3FF80
C781E0
DC0070
D80038
F00018
F0000C
E0000C
E00006
C00006
C00006
C00006
C00006
600006
60000C
60000C
300018
380038
1C0070
0F01E0
03FF80
00FE00
ENDCHAR
STARTCHAR 0037
ENCODING 55
SWIDTH 487 0
DWIDTH 23 0
BBX 18 34 2 0
BITMAP
FFFFC0
FFFFC0
0000C0
0000C0
000180
000180
000380
000300
000300
000600
000600
000C00
000C00
000C00
001800
001800
003000
003000
003000
006000
006000
00C000
00C000
01C000
018000
018000
030000
030000
070000
060000
060000
0C0000
0C0000
1C0000
ENDCHAR
STARTCHAR 0038
ENCODING 56
SWIDTH 550 0
DWIDTH 26 0
BBX 21 34 3 0
BITMAP
01FC00
0FFF00
1E0780
3801C0
7000E0
600060
600070
600030
600030
600030
600070
600060
7000E0
3801C0
1E0780
0FFF00
0FFF00
1E0380
3800C0
700060
600070
C00030
C00030
C00038
C00038
C00030
C00030
C00030
600070
700060
3800E0
1E03C0
0FFF00
01FC00
ENDCHAR
STARTCHAR 0039
ENCODING 57
SWIDTH 614 0
DWIDTH 29 0
BBX 23 34 3 0
BITMAP
00FE00
03FF80
0F81E0
1C0070
380038
300018
70000C
60000C
600006
C00006
C00006
C00006
C00006
600006
60000E
70000E
30001E
18003E
1C0076
0F81E6
03FF86
00FE06
000006
000006
000006
000006
00000C
00000C
30001C
380038
1C0070
0F01E0
03FF80
00FE00
ENDCHAR
STARTCHAR 003A
ENCODING 58
SWIDTH 275 0
DWIDTH 13 0
BBX 3 17 5 4
BITMAP
E0
E0
E0
00
00
00
00
00
00
00
00
00
00
00
E0
E0
E0
ENDCHAR
STARTCHAR 003B
ENCODING 59
SWIDTH 275 0
DWIDTH 13 0
BBX 3 30 5 -5
BITMAP
E0
E0
E0
00
00
00
00
00
00
00
00
00
00
00
00
00
00
00
00
00
00
00
E0
E0
E0
E0
20
20
60
C0
ENDCHAR
STARTCHAR 003C
ENCODING 60
SWIDTH 592 0
DWIDTH 28 0
BBX 12 22 7 4
BITMAP
0020
0070
00E0
01C0
0380
0700
0E00
1C00
3800
7000
E000
E000
7000
3800
1C00
0E00
0700
0380
01C0
00E0
0070
0020
ENDCHAR
STARTCHAR 003D
ENCODING 61
SWIDTH 741 0
DWIDTH 35 0
BBX 24 10 6 12
BITMAP
FFFFFF
FFFFFF
000000
000000
000000
000000
000000
000000
FFFFFF
FFFFFF
ENDCHAR
STARTCHAR 003E
ENCODING 62
SWIDTH 592 0
DWIDTH 28 0
BBX 12 22 9 4
BITMAP
4000
6000
3000
1800
0C00
0600
0300
0180
00C0
0060
0030
0070
00E0
01C0
0380
0700
0E00
1C00
3800
7000
E000
4000
ENDCHAR
STARTCHAR 003F
ENCODING 63
SWIDTH 508 0
DWIDTH 24 0
BBX 19 34 2 0
BITMAP
03F800
0FFF00
1E0780
3801C0
7000C0
600060
600060
C00060
C00060
000060
000060
000060
0000E0
0001C0
000380
000700
001E00
003800
007000
006000
006000
00C000
00C000
00C000
00C000
000000
000000
000000
000000
000000
00C000
00C000
00C000
00C000
ENDCHAR
STARTCHAR 0040
ENCODING 64
SWIDTH 889 0
DWIDTH 42 0
BBX 35 35 4 -5
BITMAP
0007FC0000
003FFFC000
00F803F000
03C0007800
0780001C00
0E00000E00
1C00000700
3800000380
3000000180
70000001C0
60000000C0
6003E000C0
E007FE00C0
C00E1E00C0
C0180E00E0
C0180600E0
C0300600E0
C0300600C0
C0300600C0
C0180600C0
C0180F01C0
E01C1F0180
600FFB8380
6003F1FF00
700000FC00
3000000000
3800000000
1C00000000
0E00000000
0700000000
0380002000
01E000E000
00FC07E000
003FFF8000
0007FC0000
ENDCHAR
STARTCHAR 0041
ENCODING 65
SWIDTH 614 0
DWIDTH 29 0
BBX 27 34 1 0
BITMAP
000E0000
000E0000
001E0000
001B0000
001B0000
00330000
00318000
00318000
0061C000
0060C000
00E0C000
00C0E000
00C06000
01806000
01803000
01803000
03003000
03001800
03001800
06001C00
06000C00
0E000C00
0C000600
0FFFFE00
1FFFFE00
18000300
18000300
30000300
30000180
30000180
600001C0
600000C0
E00000C0
C00000E0
ENDCHAR
STARTCHAR 0042
ENCODING 66
SWIDTH 592 0
DWIDTH 28 0
BBX 24 34 3 0
BITMAP
FFFF00
FFFFC0
C000F0
C00038
C00018
C0000C
C0000C
C0000C
C0000C
C0000C
C0000C
C0001C
C00018
C00038
C000F0
FFFFE0
FFFFE0
C00078
C0001C
C0000C
C0000E
C00006
C00007
C00003
C00003
C00003
C00003
C00007
C00006
C0000E
C0001C
C00078
FFFFF0
FFFFC0
ENDCHAR
STARTCHAR 0043
ENCODING 67
SWIDTH 698 0
DWIDTH 33 0
BBX 30 34 1 0
BITMAP
001FF000
00FFFE00
01F00F00
078003C0
0F0000E0
0C000070
1C000030
38000038
30000018
3000001C
7000000C
60000000
60000000
60000000
60000000
E0000000
E0000000
E0000000
E0000000
E0000000
60000000
60000000
60000000
6000000C
3000001C
30000018
38000038
1C000030
0C000070
0E0000E0
078003C0
01F00F80
00FFFE00
001FF000
ENDCHAR
STARTCHAR 0044
ENCODING 68
SWIDTH 656 0
DWIDTH 31 0
BBX 26 34 3 0
BITMAP
FFFF0000
FFFFE000
C001F000
C0003800
C0001C00
C0000E00
C0000700
C0000300
C0000300
C0000180
C0000180
C0000180
C00001C0
C00000C0
C00000C0
C00000C0
C00000C0
C00000C0
C00000C0
C00000C0
C00000C0
C00001C0
C0000180
C0000180
C0000180
C0000300
C0000300
C0000700
C0000E00
C0001C00
C0003800
C001F000
FFFFE000
FFFF0000
ENDCHAR
STARTCHAR 0045
ENCODING 69
SWIDTH 550 0
DWIDTH 26 0
BBX 21 34 3 0
BITMAP
FFFFF8
FFFFF8
C00000
C00000
C00000
C00000
C00000
C00000
C00000
C00000
C00000
C00000
C00000
C00000
C00000
C00000
FFFFC0
FFFFC0
C00000
C00000
C00000
C00000
C00000
C00000
C00000
C00000
C00000
C00000
C00000
C00000
C00000
C00000
FFFFF8
FFFFF8
ENDCHAR
STARTCHAR 0046
ENCODING 70
SWIDTH 487 0
DWIDTH 23 0
BBX 19 34 3 0
BITMAP
FFFFE0
FFFFE0
C00000
C00000
C00000
C00000
C00000
C00000
C00000
C00000
C00000
C00000
C00000
C00000
C00000
C00000
FFFF00
FFFF00
C00000
C00000
C00000
C00000
C00000
C00000
C00000
C00000
C00000
C00000
C00000
C00000
C00000
C00000
C00000
C00000
ENDCHAR
STARTCHAR 0047
ENCODING 71
SWIDTH 677 0
DWIDTH 32 0
BBX 30 34 1 0
BITMAP
001FF000
00FFFC00
01F01F00
07800380
0F0001C0
0C0000E0
1C000070
38000030
30000020
30000000
70000000
60000000
60000000
60000000
60000000
E0000000
E0000000
E0001FFC
E0001FFC
E000000C
6000000C
6000000C
6000000C
6000001C
30000018
30000018
38000038
18000030
0C000070
0E0000E0
078003C0
01F00F80
00FFFE00
001FF000
ENDCHAR
STARTCHAR 0048
ENCODING 72
SWIDTH 656 0
DWIDTH 31 0
BBX 25 34 3 0
BITMAP
C0000180
C0000180
C0000180
C0000180
C0000180
C0000180
C0000180
C0000180
C0000180
C0000180
C0000180
C0000180
C0000180
C0000180
C0000180
C0000180
FFFFFF80
FFFFFF80
C0000180
C0000180
C0000180
C0000180
C0000180
C0000180
C0000180
C0000180
C0000180
C0000180
C0000180
C0000180
C0000180
C0000180
C0000180
C0000180
ENDCHAR
STARTCHAR 0049
ENCODING 73
SWIDTH 211 0
DWIDTH 10 0
BBX 2 34 4 0
BITMAP
C0
C0
C0
C0
C0
C0
C0
C0
C0
C0
C0
C0
C0
C0
C0
C0
C0
C0
C0
C0
C0
C0
C0
C0
C0
C0
C0
C0
C0
C0
C0
C0
C0
C0
ENDCHAR
STARTCHAR 004A
ENCODING 74
SWIDTH 444 0
DWIDTH 21 0
BBX 17 34 0 0
BITMAP
000180
000180
000180
000180
000180
000180
000180
000180
000180
000180
000180
000180
000180
000180
000180
000180
000180
000180
000180
000180
000180
000180
000180
000180
000180
000180
000180
C00180
E00300
600300
700700
3C1E00
1FFC00
07F000
ENDCHAR
STARTCHAR 004B
ENCODING 75
SWIDTH 550 0
DWIDTH 26 0
BBX 23 34 3 0
BITMAP
C00018
C00030
C000E0
C001C0
C00380
C00700
C00E00
C01C00
C03800
C07000
C0E000
C1C000
C38000
C70000
CE0000
DC0000
D80000
CC0000
C60000
C30000
C1C000
C0E000
C07000
C03800
C01C00
C00E00
C00700
C00380
C001C0
C000E0
C00070
C00038
C0001C
C0000E
ENDCHAR
STARTCHAR 004C
ENCODING 76
SWIDTH 487 0
DWIDTH 23 0
BBX 19 34 4 0
BITMAP
C00000
C00000
C00000
C00000
C00000
C00000
C00000
C00000
C00000
C00000
C00000
C00000
C00000
C00000
C00000
C00000
C00000
C00000
C00000
C00000
C00000
C00000
C00000
C00000
C00000
C00000
C00000
C00000
C00000
C00000
C00000
C00000
FFFFE0
FFFFE0
ENDCHAR
STARTCHAR 004D
ENCODING 77
SWIDTH 825 0
DWIDTH 39 0
BBX 33 34 3 0
BITMAP
C000000180
E000000380
E000000380
F000000780
F000000780
D800000F80
D800000D80
DC00000D80
CC00001980
CE00001980
C600003180
C600003180
C300006180
C300006180
C18000E180
C18000C180
C0C001C180
C0C0018180
C0E0018180
C060030180
C070030180
C030060180
C030060180
C0180C0180
C0180C0180
C00C1C0180
C00C180180
C006380180
C006300180
C007300180
C003600180
C003E00180
C001C00180
C001C00180
ENDCHAR
STARTCHAR 004E
ENCODING 78
SWIDTH 656 0
DWIDTH 31 0
BBX 25 34 3 0
BITMAP
E0000180
E0000180
F0000180
F8000180
D8000180
CC000180
CE000180
C6000180
C3000180
C3800180
C1800180
C0C00180
C0E00180
C0600180
C0300180
C0380180
C0180180
C00C0180
C00E0180
C0070180
C0030180
C0038180
C001C180
C000C180
C000E180
C0007180
C0003180
C0001980
C0001D80
C0000D80
C0000780
C0000780
C0000380
C0000180
ENDCHAR
STARTCHAR 004F
ENCODING 79
SWIDTH 698 0
DWIDTH 33 0
BBX 31 34 1 0
BITMAP
001FF000
00FFFE00
01F00F80
078003C0
0F0000E0
0C000070
1C000030
38000038
30000018
3000001C
7000000C
6000000C
6000000E
6000000E
60000006
E0000006
E0000006
E0000006
E0000006
E0000006
60000006
6000000E
6000000C
6000000C
3000001C
30000018
38000038
1C000030
0C000070
0E0000E0
078003C0
01F00F80
00FFFE00
001FF000
ENDCHAR
STARTCHAR 0050
ENCODING 80
SWIDTH 571 0
DWIDTH 27 0
BBX 23 34 3 0
BITMAP
FFFF00
FFFFE0
C000F0
C00038
C00018
C0000C
C0000C
C00006
C00006
C00006
C00006
C00006
C00006
C0000C
C0000C
C0001C
C00038
C000F0
FFFFE0
FFFF00
C00000
C00000
C00000
C00000
C00000
C00000
C00000
C00000
C00000
C00000
C00000
C00000
C00000
C00000
ENDCHAR
STARTCHAR 0051
ENCODING 81
SWIDTH 698 0
DWIDTH 33 0
BBX 31 34 1 0
BITMAP
001FF000
00FFFE00
01F00F80
078003C0
0F0000E0
0C000070
1C000030
38000038
30000018
3000001C
7000000C
6000000C
6000000E
6000000E
60000006
E0000006
E0000006
E0000006
E0000006
E0000006
60000006
6000000E
6000000C
6000000C
3000001C
30000618
38000738
1C0003B0
0C0001F0
0E0000F0
078003F8
01F00F1C
00FFFE0C
001FF004
ENDCHAR
STARTCHAR 0052
ENCODING 82
SWIDTH 614 0
DWIDTH 29 0
BBX 24 34 3 0
BITMAP
FFFF00
FFFFE0
C000F0
C00038
C00018
C0000C
C0000C
C00006
C00006
C00006
C00006
C00006
C00006
C0000C
C0000C
C0001C
C00038
C000F0
FFFFE0
FFFF80
C001C0
C000C0
C000E0
C00060
C00060
C00030
C00030
C00018
C00018
C0001C
C0000C
C0000E
C00006
C00007
ENDCHAR
STARTCHAR 0053
ENCODING 83
SWIDTH 592 0
DWIDTH 28 0
BBX 25 34 1 0
BITMAP
007F8000
03FFE000
0780F800
0E001C00
1C000E00
38000700
30000300
30000180
30000180
30000180
30000000
38000000
1C000000
0F000000
07E00000
01FC0000
003FC000
0003F000
00007C00
00000E00
00000700
00000380
00000180
00000180
00000180
E0000180
60000180
70000180
30000380
38000700
1E000E00
07803C00
03FFF800
007FC000
ENDCHAR
STARTCHAR 0054
ENCODING 84
SWIDTH 592 0
DWIDTH 28 0
BBX 27 34 0 0
BITMAP
FFFFFFE0
FFFFFFE0
00060000
00060000
00060000
00060000
00060000
00060000
00060000
00060000
00060000
00060000
00060000
00060000
00060000
00060000
00060000
00060000
00060000
00060000
00060000
00060000
00060000
00060000
00060000
00060000
00060000
00060000
00060000
00060000
00060000
00060000
00060000
00060000
ENDCHAR
STARTCHAR 0055
ENCODING 85
SWIDTH 698 0
DWIDTH 33 0
BBX 26 34 3 0
BITMAP
C00000C0
C00000C0
C00000C0
C00000C0
C00000C0
C00000C0
C00000C0
C00000C0
C00000C0
C00000C0
C00000C0
C00000C0
C00000C0
C00000C0
C00000C0
C00000C0
C00000C0
C00000C0
C00000C0
C00000C0
C00000C0
C00000C0
C00000C0
E00000C0
600000C0
600001C0
70000180
30000380
38000300
1C000700
0E001E00
07C07800
01FFF000
007F8000
ENDCHAR
STARTCHAR 0056
ENCODING 86
SWIDTH 571 0
DWIDTH 27 0
BBX 27 34 0 0
BITMAP
E0000060
600000E0
600000C0
700000C0
30000180
30000180
18000180
18000300
18000300
0C000300
0C000600
0E000600
06000E00
06000C00
07000C00
03001800
03001800
01801800
01803000
01803000
00C07000
00C06000
00E06000
0060E000
0060C000
0070C000
00318000
00318000
00198000
001B0000
001B0000
000F0000
000E0000
000E0000
ENDCHAR
STARTCHAR 0057
ENCODING 87
SWIDTH 910 0
DWIDTH 43 0
BBX 41 34 1 0
BITMAP
C0001C000180
C0001C000380
60001C000300
60003C000300
600036000300
700036000600
300036000600
300063000600
300063000E00
180063000C00
1800C3000C00
1800C1800C00
1C00C1801800
0C00C1801800
0C0180C01800
0C0180C03800
060180C03000
060300E03000
060300603000
070300606000
030300606000
030600306000
03060030E000
01860030C000
018C0038C000
018C0018C000
01CC00198000
00CC00198000
00D8000D8000
00D8000F8000
0078000F0000
0070000F0000
007000070000
007000060000
ENDCHAR
STARTCHAR 0058
ENCODING 88
SWIDTH 571 0
DWIDTH 27 0
BBX 25 34 1 0
BITMAP
C0000180
60000300
70000700
38000600
18000C00
0C001800
0E003800
06003000
03006000
0380E000
0180C000
00C18000
00E38000
00630000
00360000
003E0000
001C0000
001C0000
00360000
00370000
00630000
00C18000
01C1C000
0180C000
03006000
07007000
06003000
0C001800
1C001C00
18000C00
30000600
70000700
60000380
C0000180
ENDCHAR
STARTCHAR 0059
ENCODING 89
SWIDTH 529 0
DWIDTH 25 0
BBX 24 34 0 0
BITMAP
E00003
600007
700006
30000E
18000C
180018
0C0038
0E0030
060070
070060
0300C0
0180C0
01C180
00C380
00E300
006700
007600
003C00
001C00
001800
001800
001800
001800
001800
001800
001800
001800
001800
001800
001800
001800
001800
001800
001800
ENDCHAR
STARTCHAR 005A
ENCODING 90
SWIDTH 571 0
DWIDTH 27 0
BBX 23 34 2 0
BITMAP
FFFFFE
FFFFFE
00000C
000018
000018
000030
000060
000060
0000C0
0001C0
000180
000300
000700
000600
000C00
000C00
001800
003800
003000
006000
00E000
00C000
018000
018000
030000
070000
060000
0C0000
1C0000
180000
300000
700000
7FFFFE
FFFFFE
ENDCHAR
STARTCHAR 005B
ENCODING 91
SWIDTH 402 0
DWIDTH 19 0
BBX 7 52 7 -10
BITMAP
FE
FE
C0
C0
C0
C0
C0
C0
C0
C0
C0
C0
C0
C0
C0
C0
C0
C0
C0
C0
C0
C0
C0
C0
C0
C0
C0
C0
C0
C0
C0
C0
C0
C0
C0
C0
C0
C0
C0
C0
C0
C0
C0
C0
C0
C0
C0
C0
C0
C0
FE
FE
ENDCHAR
STARTCHAR 005C
ENCODING 92
SWIDTH 360 0
DWIDTH 17 0
BBX 11 34 3 0
BITMAP
C000
C000
E000
6000
6000
6000
3000
3000
3000
3000
1800
1800
1800
1C00
0C00
0C00
0C00
0E00
0600
0600
0600
0300
0300
0300
0300
0180
0180
0180
01C0
00C0
00C0
00C0
00E0
0060
ENDCHAR
STARTCHAR 005D
ENCODING 93
SWIDTH 402 0
DWIDTH 19 0
BBX 8 52 4 -10
BITMAP
FF
FF
03
03
03
03
03
03
03
03
03
03
03
03
03
03
03
03
03
03
03
03
03
03
03
03
03
03
03
03
03
03
03
03
03
03
03
03
03
03
03
03
03
03
03
03
03
03
03
03
FF
FF
ENDCHAR
STARTCHAR 005E
ENCODING 94
SWIDTH 656 0
DWIDTH 31 0
BBX 21 12 5 23
BITMAP
002000
007000
00F800
01CC00
038600
070300
0E0180
1C00C0
380060
700030
E00018
400008
ENDCHAR
STARTCHAR 005F
ENCODING 95
SWIDTH 656 0
DWIDTH 31 0
BBX 31 2 0 -5
BITMAP
FFFFFFFE
FFFFFFFE
ENDCHAR
STARTCHAR 0060
ENCODING 96
SWIDTH 465 0
DWIDTH 22 0
BBX 4 6 9 38
BITMAP
C0
C0
C0
60
60
70
ENDCHAR
STARTCHAR 0061
ENCODING 97
SWIDTH 550 0
DWIDTH 26 0
BBX 21 26 2 0
BITMAP
01FE00
07FF80
1F01C0
3C0060
380070
700030
600030
000018
000018
000018
0001F8
00FFF8
0FF818
3E0018
780018
600018
E00038
C00038
C00038
C00078
C00078
E000D8
7003D8
380F98
1FFE18
07F000
ENDCHAR
STARTCHAR 0062
ENCODING 98
SWIDTH 571 0
DWIDTH 27 0
BBX 22 34 3 0
BITMAP
C00000
C00000
C00000
C00000
C00000
C00000
C00000
C00000
C0FE00
C3FF80
C703C0
CC00E0
D80070
F00038
F00018
E00018
E0000C
C0000C
C0000C
C0000C
C0000C
C0000C
C0000C
C0000C
C0000C
E0000C
E00018
F00018
F00038
D80070
DC00E0
CF03C0
C3FF80
C0FE00
ENDCHAR
STARTCHAR 0063
ENCODING 99
SWIDTH 529 0
DWIDTH 25 0
BBX 21 26 2 0
BITMAP
00FE00
07FFC0
0F01E0
1C0070
380038
300018
600008
600000
E00000
C00000
C00000
C00000
C00000
C00000
C00000
C00000
C00000
E00000
600000
600008
300018
380038
1C0070
0F01E0
07FFC0
00FE00
ENDCHAR
STARTCHAR 0064
ENCODING 100
SWIDTH 571 0
DWIDTH 27 0
BBX 22 34 2 0
BITMAP
00000C
00000C
00000C
00000C
00000C
00000C
00000C
00000C
01FC0C
07FF0C
0F03CC
1C00CC
38006C
30003C
60001C
60001C
E0001C
C0000C
C0000C
C0000C
C0000C
C0000C
C0000C
C0000C
C0000C
E0001C
60001C
60001C
30003C
38006C
1C00EC
0F03CC
07FF0C
00FC0C
ENDCHAR
STARTCHAR 0065
ENCODING 101
SWIDTH 571 0
DWIDTH 27 0
BBX 23 26 2 0
BITMAP
00FE00
07FF80
0F01E0
1C0070
380038
300018
60001C
60000C
E0000C
C00006
C00006
C00006
FFFFFE
FFFFFE
C00000
C00000
C00000
C00000
600000
60000C
70000C
380018
1C0070
0F01E0
07FFC0
00FE00
ENDCHAR
STARTCHAR 0066
ENCODING 102
SWIDTH 338 0
DWIDTH 16 0
BBX 15 34 1 0
BITMAP
00FE
01FE
0300
0700
0600
0600
0600
0600
FFFE
FFFE
0600
0600
0600
0600
0600
0600
0600
0600
0600
0600
0600
0600
0600
0600
0600
0600
0600
0600
0600
0600
0600
0600
0600
0600
ENDCHAR
STARTCHAR 0067
ENCODING 103
SWIDTH 571 0
DWIDTH 27 0
BBX 22 37 2 -11
BITMAP
01FC0C
07FF0C
0F03CC
1C00EC
38007C
30003C
60001C
60001C
E0001C
C0000C
C0000C
C0000C
C0000C
C0000C
C0000C
C0000C
C0000C
E0001C
60001C
60001C
30003C
38006C
1C00EC
0F03CC
07FF0C
00FC0C
00000C
00000C
00001C
000018
000018
600038
300030
3C0070
1F01E0
07FFC0
01FE00
ENDCHAR
STARTCHAR 0068
ENCODING 104
SWIDTH 571 0
DWIDTH 27 0
BBX 21 34 3 0
BITMAP
C00000
C00000
C00000
C00000
C00000
C00000
C00000
C00000
C1FC00
C7FF00
CF03C0
DC00E0
F80060
F00030
E00030
E00018
E00018
C00018
C00018
C00018
C00018
C00018
C00018
C00018
C00018
C00018
C00018
C00018
C00018
C00018
C00018
C00018
C00018
C00018
ENDCHAR
STARTCHAR 0069
ENCODING 105
SWIDTH 211 0
DWIDTH 10 0
BBX 2 34 4 0
BITMAP
C0
C0
C0
00
00
00
00
00
C0
C0
C0
C0
C0
C0
C0
C0
C0
C0
C0
C0
C0
C0
C0
C0
C0
C0
C0
C0
C0
C0
C0
C0
C0
C0
ENDCHAR
STARTCHAR 006A
ENCODING 106
SWIDTH 232 0
DWIDTH 11 0
BBX 7 45 0 -11
BITMAP
06
06
06
00
00
00
00
00
06
06
06
06
06
06
06
06
06
06
06
06
06
06
06
06
06
06
06
06
06
06
06
06
06
06
06
06
06
06
06
06
06
0E
1C
FC
F0
ENDCHAR
STARTCHAR 006B
ENCODING 107
SWIDTH 465 0
DWIDTH 22 0
BBX 19 34 3 0
BITMAP
C00000
C00000
C00000
C00000
C00000
C00000
C00000
C00000
C001C0
C00700
C00E00
C01C00
C03800
C07000
C0E000
C1C000
C38000
C70000
CE0000
DC0000
F80000
F80000
DC0000
C70000
C38000
C1C000
C0E000
C07000
C03C00
C01E00
C00700
C00380
C001C0
C000E0
ENDCHAR
STARTCHAR 006C
ENCODING 108
SWIDTH 211 0
DWIDTH 10 0
BBX 2 34 4 0
BITMAP
C0
C0
C0
C0
C0
C0
C0
C0
C0
C0
C0
C0
C0
C0
C0
C0
C0
C0
C0
C0
C0
C0
C0
C0
C0
C0
C0
C0
C0
C0
C0
C0
C0
C0
ENDCHAR
STARTCHAR 006D
ENCODING 109
SWIDTH 804 0
DWIDTH 38 0
BBX 33 26 3 0
BITMAP
C3F007E000
CFFC1FF800
DC0E381C00
F007700600
F003E00700
E001C00300
E001C00300
C001C00180
C001800180
C001800180
C001800180
C001800180
C001800180
C001800180
C001800180
C001800180
C001800180
C001800180
C001800180
C001800180
C001800180
C001800180
C001800180
C001800180
C001800180
C001800180
ENDCHAR
STARTCHAR 006E
ENCODING 110
SWIDTH 571 0
DWIDTH 27 0
BBX 21 26 3 0
BITMAP
C1FC00
C7FF00
CF03C0
DC00E0
F80060
F00030
E00030
E00018
E00018
C00018
C00018
C00018
C00018
C00018
C00018
C00018
C00018
C00018
C00018
C00018
C00018
C00018
C00018
C00018
C00018
C00018
ENDCHAR
STARTCHAR 006F
ENCODING 111
SWIDTH 571 0
DWIDTH 27 0
BBX 23 26 2 0
BITMAP
00FE00
07FFC0
0F01E0
1C0070
380038
30001C
60000C
60000C
E0000E
C00006
C00006
C00006
C00006
C00006
C00006
C00006
C00006
E0000E
60000C
60000C
30001C
380038
1C0070
0F01E0
07FFC0
00FE00
ENDCHAR
STARTCHAR 0070
ENCODING 112
SWIDTH 571 0
DWIDTH 27 0
BBX 22 37 3 -11
BITMAP
C0FE00
C3FF80
C703C0
CC00E0
D80070
F00038
F00018
E00018
E0000C
C0000C
C0000C
C0000C
C0000C
C0000C
C0000C
C0000C
C0000C
E0000C
E00018
F00018
F00038
D80070
CC00E0
C703C0
C3FF80
C0FE00
C00000
C00000
C00000
C00000
C00000
C00000
C00000
C00000
C00000
C00000
C00000
ENDCHAR
STARTCHAR 0071
ENCODING 113
SWIDTH 571 0
DWIDTH 27 0
BBX 22 37 2 -11
BITMAP
01FC0C
07FF0C
0F03CC
1C00EC
38007C
30003C
60001C
60001C
E0001C
C0000C
C0000C
C0000C
C0000C
C0000C
C0000C
C0000C
C0000C
E0001C
60001C
60001C
30003C
38006C
1C00EC
0F03CC
07FF0C
00FC0C
00000C
00000C
00000C
00000C
00000C
00000C
00000C
00000C
00000C
00000C
00000C
ENDCHAR
STARTCHAR 0072
ENCODING 114
SWIDTH 338 0
DWIDTH 16 0
BBX 12 26 3 0
BITMAP
C1F0
C7F0
DE00
D800
F000
F000
E000
E000
E000
C000
C000
C000
C000
C000
C000
C000
C000
C000
C000
C000
C000
C000
C000
C000
C000
C000
ENDCHAR
STARTCHAR 0073
ENCODING 115
SWIDTH 508 0
DWIDTH 24 0
BBX 20 26 2 0
BITMAP
03FC00
0FFF00
3C07C0
3000E0
600070
600030
600030
600020
600000
780000
3E0000
0FC000
01FC00
001F80
0003C0
0000E0
000030
000030
000030
C00030
E00030
600070
7800E0
3E03C0
0FFF80
03FE00
ENDCHAR
STARTCHAR 0074
ENCODING 116
SWIDTH 381 0
DWIDTH 18 0
BBX 16 33 0 -1
BITMAP
0300
0300
0300
0300
0300
0300
0300
FFFF
FFFF
0300
0300
0300
0300
0300
0300
0300
0300
0300
0300
0300
0300
0300
0300
0300
0300
0300
0300
0180
0180
0180
00E0
007F
003F
ENDCHAR
STARTCHAR 0075
ENCODING 117
SWIDTH 571 0
DWIDTH 27 0
BBX 21 26 3 0
BITMAP
C00018
C00018
C00018
C00018
C00018
C00018
C00018
C00018
C00018
C00018
C00018
C00018
C00018
C00018
C00018
C00018
C00018
C00038
C00038
600038
600078
3000F8
3801D8
1E0798
07FF18
01FC18
ENDCHAR
STARTCHAR 0076
ENCODING 118
SWIDTH 487 0
DWIDTH 23 0
BBX 20 26 1 0
BITMAP
C00030
E00030
600030
600060
300060
300060
3000C0
1800C0
1801C0
180180
0C0180
0C0380
0E0300
060300
060600
070600
030600
030C00
038C00
018C00
019800
00D800
00F800
00F000
007000
007000
ENDCHAR
STARTCHAR 0077
ENCODING 119
SWIDTH 741 0
DWIDTH 35 0
BBX 33 26 1 0
BITMAP
C001C00180
C001C00180
6001C00300
6003E00300
6003600300
3003600700
3003700600
3006300600
3806300600
1806300C00
180C180C00
180C180C00
0C0C181800
0C1C0C1800
0C180C1800
06180C3800
06180E3000
0630063000
0730063000
0330066000
0360036000
0360036000
01E003C000
01E001C000
01C001C000
00C001C000
ENDCHAR
STARTCHAR 0078
ENCODING 120
SWIDTH 508 0
DWIDTH 24 0
BBX 22 26 1 0
BITMAP
E0001C
600018
300030
380070
1C00E0
0C00C0
060180
030300
038700
01CE00
00CC00
007800
003000
007800
007800
00CC00
018600
038700
070380
060180
0C00C0
180060
380070
700038
600018
C0000C
ENDCHAR
STARTCHAR 0079
ENCODING 121
SWIDTH 508 0
DWIDTH 24 0
BBX 22 37 1 -11
BITMAP
C0001C
600018
600018
700030
300030
300030
180060
180060
1C00E0
0C00C0
0C00C0
0601C0
060180
070180
030300
030300
018300
018600
01C600
00CE00
00CC00
006C00
007C00
007800
003800
003000
003000
003000
006000
006000
00E000
00C000
00C000
01C000
018000
018000
030000
ENDCHAR
STARTCHAR 007A
ENCODING 122
SWIDTH 529 0
DWIDTH 25 0
BBX 22 26 1 0
BITMAP
7FFFFC
7FFFF8
000038
000070
0000E0
0000C0
000180
000380
000700
000E00
000C00
001800
003800
007000
006000
00C000
01C000
038000
070000
060000
0C0000
1C0000
380000
700000
7FFFF8
FFFFF8
ENDCHAR
STARTCHAR 007B
ENCODING 123
SWIDTH 402 0
DWIDTH 19 0
BBX 10 52 7 -10
BITMAP
07C0
0FC0
1C00
3800
3000
3000
3000
3000
3000
3000
3000
3000
3000
3000
3000
3000
3000
3000
3000
3000
3000
3000
3000
7000
E000
C000
C000
E000
7000
3000
3000
3000
3000
3000
3000
3000
3000
3000
3000
3000
3000
3000
3000
3000
3000
3000
3000
3000
3800
1800
0FC0
07C0
ENDCHAR
STARTCHAR 007C
ENCODING 124
SWIDTH 211 0
DWIDTH 10 0
BBX 2 34 4 0
BITMAP
C0
C0
C0
C0
C0
C0
C0
C0
C0
C0
C0
C0
C0
C0
C0
C0
C0
C0
C0
C0
C0
C0
C0
C0
C0
C0
C0
C0
C0
C0
C0
C0
C0
C0
ENDCHAR
STARTCHAR 007D
ENCODING 125
SWIDTH 402 0
DWIDTH 19 0
BBX 10 52 2 -10
BITMAP
F800
FC00
0E00
0600
0300
0300
0300
0300
0300
0300
0300
0300
0300
0300
0300
0300
0300
0300
0300
0300
0300
0300
0300
0380
0180
00C0
00C0
0180
0380
0300
0300
0300
0300
0300
0300
0300
0300
0300
0300
0300
0300
0300
0300
0300
0300
0300
0300
0300
0600
0E00
FC00
F800
ENDCHAR
STARTCHAR 007E
ENCODING 126
SWIDTH 635 0
DWIDTH 30 0
BBX 18 7 6 11
BITMAP
180000
7F01C0
FFC1C0
E3F1C0
C0FF80
C03F80
000C00
ENDCHAR
STARTCHAR 00A0
ENCODING 160
SWIDTH 190 0
DWIDTH 9 0
BBX 0 0 0 0
BITMAP
ENDCHAR
STARTCHAR 00A1
ENCODING 161
SWIDTH 275 0
DWIDTH 13 0
BBX 2 34 6 -8
BITMAP
C0
C0
C0
00
00
00
00
00
C0
C0
C0
C0
C0
C0
C0
C0
C0
C0
C0
C0
C0
C0
C0
C0
C0
C0
C0
C0
C0
C0
C0
C0
C0
C0
ENDCHAR
STARTCHAR 00A2
ENCODING 162
SWIDTH 529 0
DWIDTH 25 0
BBX 22 35 2 -1
BITMAP
001800
001800
001800
001800
00FE00
07FF80
0F01E0
1C0070
380038
300018
70000C
600000
600000
C00000
C00000
C00000
C00000
C00000
C00000
C00000
C00000
C00000
E00000
600000
700008
300018
380038
1C0070
0F01E0
07FFC0
00FE00
001800
001800
001800
001800
ENDCHAR
STARTCHAR 00A3
ENCODING 163
SWIDTH 571 0
DWIDTH 27 0
BBX 24 34 1 0
BITMAP
0007E0
001FF0
003838
00600C
00C006
00C006
018003
018003
018000
018000
018000
018000
018000
018000
018000
018000
FFFFE0
FFFFE0
018000
018000
018000
018000
018000
018000
018000
018000
018000
018000
018000
018000
018000
038000
FFFFFF
FFFFFF
ENDCHAR
STARTCHAR 00A4
ENCODING 164
SWIDTH 614 0
DWIDTH 29 0
BBX 27 26 1 4
BITMAP
00000040
E03F80E0
70FFF1C0
3BC07B80
1F001F00
0E000600
1C000300
18000380
30000180
300001C0
300000C0
600000C0
600000C0
600000C0
600000C0
300000C0
300001C0
30000180
18000380
1C000300
0E000E00
1F001F00
3BC07B80
70FFF1C0
E03F80E0
40000040
ENDCHAR
STARTCHAR 00A5
ENCODING 165
SWIDTH 529 0
DWIDTH 25 0
BBX 24 34 0 0
BITMAP
E00003
600007
700006
30000E
18000C
180018
0C0038
0E0030
060070
070060
0300E0
0180C0
018180
00C380
00E300
006700
007600
003C00
001C00
001800
0FFFF8
0FFFF8
001800
001800
001800
001800
0FFFF8
0FFFF8
001800
001800
001800
001800
001800
001800
ENDCHAR
STARTCHAR 00A6
ENCODING 166
SWIDTH 211 0
DWIDTH 10 0
BBX 2 40 4 -6
BITMAP
C0
C0
C0
C0
C0
C0
C0
C0
C0
C0
C0
C0
C0
C0
C0
C0
00
00
00
00
00
00
00
00
C0
C0
C0
C0
C0
C0
C0
C0
C0
C0
C0
C0
C0
C0
C0
C0
ENDCHAR
STARTCHAR 00A7
ENCODING 167
SWIDTH 508 0
DWIDTH 24 0
BBX 21 39 2 -8
BITMAP
01F800
0FFE00
1E0780
3801C0
3000C0
600060
600060
600060
700000
300000
3C0000
0F8000
03F800
1E7F00
380FC0
7000E0
600070
C00030
C00018
C00018
E00018
700038
380030
1F0070
07F1E0
00FF80
000F80
0001C0
0000E0
000070
000030
000030
600030
700070
300060
3C00E0
1F03C0
07FF80
01FC00
ENDCHAR
STARTCHAR 00A8
ENCODING 168
SWIDTH 487 0
DWIDTH 23 0
BBX 11 3 6 40
BITMAP
C0E0
C0E0
C0E0
ENDCHAR
STARTCHAR 00A9
ENCODING 169
SWIDTH 741 0
DWIDTH 35 0
BBX 33 32 1 0
BITMAP
000FF80000
003FFF0000
00F80F8000
03C001E000
0780007000
0E00003800
1C03F01C00
180FFC0C00
381C1E0600
3038070700
7070030300
6060020300
60E0000300
60C0000180
E0C0000180
C0C0000180
C0C0000180
E0C0000180
60C0000180
60E0000380
6060020300
7070030300
3038070700
381C1E0600
180FFC0C00
1C03F01C00
0E00003800
0700007000
03C001E000
00F80F8000
003FFF0000
0007F80000
ENDCHAR
STARTCHAR 00AA
ENCODING 170
SWIDTH 317 0
DWIDTH 15 0
BBX 11 13 2 13
BITMAP
1F00
7FC0
60C0
6060
0060
0FE0
7F60
E060
C0E0
C0E0
E1E0
7F60
3E60
ENDCHAR
STARTCHAR 00AB
ENCODING 171
SWIDTH 508 0
DWIDTH 24 0
BBX 16 20 4 3
BITMAP
0101
0183
0306
060E
0E1C
1C18
1830
3060
60E0
E1C0
C1C0
60C0
3060
3830
1C38
0C1C
060C
0306
0383
0183
ENDCHAR
STARTCHAR 00AC
ENCODING 172
SWIDTH 592 0
DWIDTH 28 0
BBX 22 8 3 10
BITMAP
FFFFFC
FFFFFC
00000C
00000C
00000C
00000C
00000C
00000C
ENDCHAR
STARTCHAR 00AD
ENCODING 173
SWIDTH 423 0
DWIDTH 20 0
BBX 14 2 3 14
BITMAP
FFFC
FFFC
ENDCHAR
STARTCHAR 00AE
ENCODING 174
SWIDTH 614 0
DWIDTH 29 0
BBX 22 22 3 14
BITMAP
00FC00
03FF80
0F03C0
1C00E0
380070
31F838
71FE18
61860C
61830C
C1830C
C1860C
C1FE0C
C1FC0C
618C0C
61860C
618618
300038
380030
1C00E0
0F03C0
03FF80
00FE00
ENDCHAR
STARTCHAR 00AF
ENCODING 175
SWIDTH 487 0
DWIDTH 23 0
BBX 11 2 6 40
BITMAP
FFE0
FFE0
ENDCHAR
STARTCHAR 00B0
ENCODING 176
SWIDTH 444 0
DWIDTH 21 0
BBX 17 17 1 17
BITMAP
03F000
0FFC00
1C1E00
380700
700300
600180
600180
C00180
C00180
C00180
600180
600180
700300
380700
1C1E00
0FFC00
03F000
ENDCHAR
STARTCHAR 00B1
ENCODING 177
SWIDTH 592 0
DWIDTH 28 0
BBX 22 22 3 4
BITMAP
003000
003000
003000
003000
003000
003000
003000
FFFFFC
FFFFFC
003000
003000
003000
003000
003000
003000
003000
000000
000000
000000
000000
FFFFFC
FFFFFC
ENDCHAR
STARTCHAR 00B2
ENCODING 178
SWIDTH 402 0
DWIDTH 19 0
BBX 14 22 2 12
BITMAP
07C0
1FF0
3838
7018
600C
600C
C00C
000C
000C
001C
0018
0030
0070
00C0
0380
0700
0E00
1C00
3800
7000
FFFC
FFFC
ENDCHAR
STARTCHAR 00B3
ENCODING 179
SWIDTH 381 0
DWIDTH 18 0
BBX 13 22 2 12
BITMAP
7FF8
7FF8
0030
0060
01C0
0380
0700
0E00
1F80
1FE0
0070
0030
0018
0018
0018
0018
0018
C018
E030
7070
3FE0
0F80
ENDCHAR
STARTCHAR 00B4
ENCODING 180
SWIDTH 465 0
DWIDTH 22 0
BBX 4 6 9 38
BITMAP
30
70
60
60
C0
C0
ENDCHAR
STARTCHAR 00B5
ENCODING 181
SWIDTH 592 0
DWIDTH 28 0
BBX 21 37 3 -11
BITMAP
C00018
C00018
C00018
C00018
C00018
C00018
C00018
C00018
C00018
C00018
C00018
C00018
C00018
C00018
C00018
C00018
C00018
E00018
E00018
E00038
F00038
F00078
D800F8
CE03D8
C7FF18
C1FC18
C00000
C00000
C00000
C00000
C00000
C00000
C00000
C00000
C00000
C00000
C00000
ENDCHAR
STARTCHAR 00B6
ENCODING 182
SWIDTH 571 0
DWIDTH 27 0
BBX 19 41 4 -7
BITMAP
01FC60
07FC60
1FFC60
3FFC60
3FFC60
7FFC60
7FFC60
7FFC60
FFFC60
FFFC60
FFFC60
FFFC60
FFFC60
7FFC60
7FFC60
3FFC60
3FFC60
1FFC60
0FFC60
03FC60
000C60
000C60
000C60
000C60
000C60
000C60
000C60
000C60
000C60
000C60
000C60
000C60
000C60
000C60
000C60
000C60
000C60
000C60
000C60
000C60
000C60
ENDCHAR
STARTCHAR 00B7
ENCODING 183
SWIDTH 190 0
DWIDTH 9 0
BBX 4 4 3 13
BITMAP
60
F0
F0
E0
ENDCHAR
STARTCHAR 00B8
ENCODING 184
SWIDTH 381 0
DWIDTH 18 0
BBX 7 12 6 -11
BITMAP
18
18
30
30
38
3C
0C
06
0E
0C
FC
F0
ENDCHAR
STARTCHAR 00B9
ENCODING 185
SWIDTH 296 0
DWIDTH 14 0
BBX 6 21 3 13
BITMAP
1C
7C
EC
CC
0C
0C
0C
0C
0C
0C
0C
0C
0C
0C
0C
0C
0C
0C
0C
0C
0C
ENDCHAR
STARTCHAR 00BA
ENCODING 186
SWIDTH 338 0
DWIDTH 16 0
BBX 12 13 2 13
BITMAP
1F80
3FC0
70E0
E070
C030
C030
C030
C030
C030
E070
70E0
3FC0
1F80
ENDCHAR
STARTCHAR 00BB
ENCODING 187
SWIDTH 508 0
DWIDTH 24 0
BBX 16 20 4 3
BITMAP
8100
C180
E1C0
70E0
3060
1830
0C18
0E1C
070E
0306
0387
070E
060C
0C18
1830
3870
70E0
60C0
C180
8100
ENDCHAR
STARTCHAR 00BC
ENCODING 188
SWIDTH 931 0
DWIDTH 44 0
BBX 35 34 3 0
BITMAP
1C00001000
7C00001800
EC00003800
CC00007000
0C0000E000
0C0001C000
0C00018000
0C00038000
0C00070000
0C000E0000
0C000C0000
0C001C0000
0C00380000
0C00700C00
0C00E01C00
0C00C01800
0C01C03800
0C03803000
0C07007000
0C0E006000
0C0C006000
001C00C000
003800C180
0070018180
00E0018180
00C0030180
01C0030180
0380060180
070007FFE0
0E0007FFE0
0E00000180
1C00000180
3800000180
1000000180
ENDCHAR
STARTCHAR 00BD
ENCODING 189
SWIDTH 889 0
DWIDTH 42 0
BBX 36 34 3 0
BITMAP
1C00001000
7C00001800
EC00003800
CC00007000
0C0000E000
0C0001C000
0C00018000
0C00038000
0C00070000
0C000E0000
0C000C0000
0C001C0000
0C00381F00
0C00707FC0
0C00E0E1E0
0C00C1C060
0C01C18030
0C03818030
0C07018030
0C0E000030
0C0C000030
001C000030
0038000060
00700000E0
00E00001C0
00C0000380
01C0000700
0380000C00
0700001800
0E00007000
0E0000E000
1C0001C000
380003FFF0
100003FFF0
ENDCHAR
STARTCHAR 00BE
ENCODING 190
SWIDTH 952 0
DWIDTH 45 0
BBX 40 34 2 0
BITMAP
7FF8000080
7FF80001C0
0030000380
0060000300
01C0000700
0380000E00
0700001C00
0E00003800
1F80003000
1FE0007000
007000E000
003001C000
0018038000
00180300E0
00180700C0
00180E01C0
00181C0180
C018380380
E030300300
7070700300
3FE0E00600
0F81C00600
0003800C0C
0003800C0C
000700180C
000E00180C
001C00300C
001800300C
0038003FFF
0070003FFF
00E000000C
01C000000C
018000000C
008000000C
ENDCHAR
STARTCHAR 00BF
ENCODING 191
SWIDTH 508 0
DWIDTH 24 0
BBX 19 35 2 -9
BITMAP
007000
007000
007000
007000
000000
000000
000000
000000
000000
006000
006000
006000
006000
006000
006000
00E000
01C000
038000
070000
1E0000
380000
300000
600000
600000
E00000
C00000
C00060
E00060
600060
600060
7000C0
3801C0
1E0780
0FFF00
03FC00
ENDCHAR
STARTCHAR 00C0
ENCODING 192
SWIDTH 614 0
DWIDTH 29 0
BBX 27 44 1 0
BITMAP
00300000
00180000
00180000
00180000
000C0000
000C0000
00000000
00000000
00000000
00000000
000E0000
000E0000
001E0000
001B0000
001B0000
00330000
00318000
00318000
0061C000
0060C000
00E0C000
00C06000
00C06000
01806000
01803000
01803000
03003000
03001800
03001800
06001C00
06000C00
0E000C00
0C000600
0FFFFE00
1FFFFE00
18000300
18000300
30000300
30000180
30000180
600001C0
600000C0
E00000C0
C00000E0
ENDCHAR
STARTCHAR 00C1
ENCODING 193
SWIDTH 614 0
DWIDTH 29 0
BBX 27 45 1 0
BITMAP
00018000
00030000
00030000
00030000
00060000
00060000
00060000
00000000
00000000
00000000
00000000
000E0000
000E0000
001E0000
001B0000
001B0000
00330000
00318000
00318000
0061C000
0060C000
00E0C000
00C0E000
00C06000
01806000
01803000
01803000
03003000
03001800
03001800
06001C00
06000C00
0E000C00
0C000600
0FFFFE00
1FFFFE00
18000300
18000300
30000300
30000180
30000180
600001C0
600000C0
E00000C0
C00000E0
ENDCHAR
STARTCHAR 00C2
ENCODING 194
SWIDTH 614 0
DWIDTH 29 0
BBX 27 44 1 0
BITMAP
000E0000
001F0000
003B8000
00718000
0060C000
00C06000
00000000
00000000
00000000
00000000
000E0000
000E0000
001E0000
001B0000
001B0000
00330000
00318000
00318000
0061C000
0060C000
00E0C000
00C0E000
00C06000
01806000
01803000
01803000
03003000
03001800
03001800
06001C00
06000C00
0E000C00
0C000600
0FFFFE00
1FFFFE00
18000300
18000300
30000300
30000180
30000180
600001C0
600000C0
E00000C0
C00000E0
ENDCHAR
STARTCHAR 00C3
ENCODING 195
SWIDTH 614 0
DWIDTH 29 0
BBX 27 44 1 0
BITMAP
00F03000
01FC3000
018E3000
0187E000
0181C000
00000000
00000000
00000000
00000000
00000000
000E0000
000E0000
001E0000
001B0000
001B0000
00330000
00318000
00318000
0061C000
0060C000
00E0C000
00C0E000
00C06000
01806000
01803000
01803000
03003000
03001800
03001800
06001C00
06000C00
0E000C00
0C000600
0FFFFE00
1FFFFE00
18000300
18000300
30000300
30000180
30000180
600001C0
600000C0
E00000C0
C00000E0
ENDCHAR
STARTCHAR 00C4
ENCODING 196
SWIDTH 614 0
DWIDTH 29 0
BBX 27 43 1 0
BITMAP
00E0E000
00E0E000
00E0E000
00000000
00000000
00000000
00000000
00000000
00000000
000E0000
000E0000
001E0000
001B0000
001B0000
00330000
00318000
00318000
0061C000
0060C000
00E0C000
00C0E000
00C06000
01806000
01803000
01803000
03003000
03001800
03001800
06001C00
06000C00
0E000C00
0C000600
0FFFFE00
1FFFFE00
18000300
18000300
30000300
30000180
30000180
600001C0
600000C0
E00000C0
C00000E0
ENDCHAR
STARTCHAR 00C5
ENCODING 197
SWIDTH 614 0
DWIDTH 29 0
BBX 27 46 1 0
BITMAP
001E0000
003F8000
00718000
0060C000
0060C000
0060C000
00718000
003F8000
001E0000
00000000
00000000
00000000
000E0000
000E0000
001E0000
001B0000
001B0000
00330000
00318000
00318000
0061C000
0060C000
00E0C000
00C0E000
00C06000
01806000
01803000
01803000
03003000
03001800
03001800
06001C00
06000C00
0E000C00
0C000600
0FFFFE00
1FFFFE00
18000300
18000300
30000300
30000180
30000180
600001C0
600000C0
E00000C0
C00000E0
ENDCHAR
STARTCHAR 00C6
ENCODING 198
SWIDTH 910 0
DWIDTH 43 0
BBX 39 34 1 0
BITMAP
000FFFFFFE
000FFFFFFE
0018180000
0018180000
0018180000
0030180000
0030180000
0030180000
0060180000
0060180000
00E0180000
00C0180000
00C0180000
0180180000
0180180000
0180180000
03001FFFF8
03001FFFF8
0300180000
0600180000
0600180000
0E00180000
0C00180000
0FFFF80000
1FFFF80000
1800180000
1800180000
3000180000
3000180000
3000180000
6000180000
6000180000
E0001FFFFE
C0001FFFFE
ENDCHAR
STARTCHAR 00C7
ENCODING 199
SWIDTH 698 0
DWIDTH 33 0
BBX 30 45 1 -11
BITMAP
001FF000
00FFFE00
01F00F00
078003C0
0F0000E0
0C000070
1C000030
38000038
30000018
3000001C
7000000C
60000000
60000000
60000000
60000000
E0000000
E0000000
E0000000
E0000000
E0000000
60000000
60000000
60000000
6000000C
3000001C
30000018
38000038
1C000030
0C000070
0E0000E0
078003C0
01F00F80
00FFFE00
001FF000
0000C000
00018000
00018000
0003C000
0000E000
00006000
00007000
00007000
00006000
0007E000
00078000
ENDCHAR
STARTCHAR 00C8
ENCODING 200
SWIDTH 550 0
DWIDTH 26 0
BBX 21 44 3 0
BITMAP
006000
006000
006000
003000
003000
003000
000000
000000
000000
000000
FFFFF8
FFFFF8
C00000
C00000
C00000
C00000
C00000
C00000
C00000
C00000
C00000
C00000
C00000
C00000
C00000
C00000
FFFFC0
FFFFC0
C00000
C00000
C00000
C00000
C00000
C00000
C00000
C00000
C00000
C00000
C00000
C00000
C00000
C00000
FFFFF8
FFFFF8
ENDCHAR
STARTCHAR 00C9
ENCODING 201
SWIDTH 550 0
DWIDTH 26 0
BBX 21 45 3 0
BITMAP
000C00
000C00
000C00
001800
001800
001800
003000
000000
000000
000000
000000
FFFFF8
FFFFF8
C00000
C00000
C00000
C00000
C00000
C00000
C00000
C00000
C00000
C00000
C00000
C00000
C00000
C00000
FFFFC0
FFFFC0
C00000
C00000
C00000
C00000
C00000
C00000
C00000
C00000
C00000
C00000
C00000
C00000
C00000
C00000
FFFFF8
FFFFF8
ENDCHAR
STARTCHAR 00CA
ENCODING 202
SWIDTH 550 0
DWIDTH 26 0
BBX 21 44 3 0
BITMAP
007000
00F800
01DC00
038C00
030600
060300
000000
000000
000000
000000
FFFFF8
FFFFF8
C00000
C00000
C00000
C00000
C00000
C00000
C00000
C00000
C00000
C00000
C00000
C00000
C00000
C00000
FFFFC0
FFFFC0
C00000
C00000
C00000
C00000
C00000
C00000
C00000
C00000
C00000
C00000
C00000
C00000
C00000
C00000
FFFFF8
FFFFF8
ENDCHAR
STARTCHAR 00CB
ENCODING 203
SWIDTH 550 0
DWIDTH 26 0
BBX 21 43 3 0
BITMAP
0E0700
0E0700
0E0700
000000
000000
000000
000000
000000
000000
FFFFF8
FFFFF8
C00000
C00000
C00000
C00000
C00000
C00000
C00000
C00000
C00000
C00000
C00000
C00000
C00000
C00000
FFFFC0
FFFFC0
C00000
C00000
C00000
C00000
C00000
C00000
C00000
C00000
C00000
C00000
C00000
C00000
C00000
C00000
FFFFF8
FFFFF8
ENDCHAR
STARTCHAR 00CC
ENCODING 204
SWIDTH 211 0
DWIDTH 10 0
BBX 4 44 2 0
BITMAP
C0
C0
E0
60
60
70
00
00
00
00
30
30
30
30
30
30
30
30
30
30
30
30
30
30
30
30
30
30
30
30
30
30
30
30
30
30
30
30
30
30
30
30
30
30
ENDCHAR
STARTCHAR 00CD
ENCODING 205
SWIDTH 211 0
DWIDTH 10 0
BBX 4 45 4 0
BITMAP
30
30
60
60
60
C0
C0
00
00
00
00
C0
C0
C0
C0
C0
C0
C0
C0
C0
C0
C0
C0
C0
C0
C0
C0
C0
C0
C0
C0
C0
C0
C0
C0
C0
C0
C0
C0
C0
C0
C0
C0
C0
C0
ENDCHAR
STARTCHAR 00CE
ENCODING 206
SWIDTH 211 0
DWIDTH 10 0
BBX 11 44 -1 0
BITMAP
0E00
1F00
1B80
31C0
60E0
E060
0000
0000
0000
0000
0600
0600
0600
0600
0600
0600
0600
0600
0600
0600
0600
0600
0600
0600
0600
0600
0600
0600
0600
0600
0600
0600
0600
0600
0600
0600
0600
0600
0600
0600
0600
0600
0600
0600
ENDCHAR
STARTCHAR 00CF
ENCODING 207
SWIDTH 211 0
DWIDTH 10 0
BBX 11 43 -1 0
BITMAP
E060
E060
E060
0000
0000
0000
0000
0000
0000
0600
0600
0600
0600
0600
0600
0600
0600
0600
0600
0600
0600
0600
0600
0600
0600
0600
0600
0600
0600
0600
0600
0600
0600
0600
0600
0600
0600
0600
0600
0600
0600
0600
0600
ENDCHAR
STARTCHAR 00D0
ENCODING 208
SWIDTH 635 0
DWIDTH 30 0
BBX 28 34 0 0
BITMAP
1FFFC000
1FFFF800
18003E00
18000F00
18000380
18000180
180000C0
180000E0
18000060
18000060
18000070
18000030
18000030
18000030
18000030
18000030
FFFE0030
FFFE0030
18000030
18000030
18000030
18000030
18000030
18000070
18000060
18000060
180000E0
180000C0
18000180
18000380
18000F00
18003E00
1FFFF800
1FFFE000
ENDCHAR
STARTCHAR 00D1
ENCODING 209
SWIDTH 656 0
DWIDTH 31 0
BBX 25 43 3 0
BITMAP
00E03000
01F83000
019E3000
0187E000
0181C000
00000000
00000000
00000000
00000000
E0000180
E0000180
F0000180
F8000180
D8000180
CC000180
CE000180
C6000180
C3000180
C3800180
C1800180
C0C00180
C0E00180
C0600180
C0300180
C0380180
C0180180
C00C0180
C00E0180
C0070180
C0030180
C0038180
C001C180
C000C180
C000E180
C0007180
C0003180
C0001980
C0001D80
C0000D80
C0000780
C0000780
C0000380
C0000180
ENDCHAR
STARTCHAR 00D2
ENCODING 210
SWIDTH 698 0
DWIDTH 33 0
BBX 31 44 1 0
BITMAP
00060000
00060000
00070000
00030000
00030000
00038000
00000000
00000000
00000000
00000000
001FF000
00FFFE00
01F00F80
078003C0
0F0000E0
0C000070
1C000030
38000038
30000018
3000001C
7000000C
6000000C
6000000E
6000000E
60000006
E0000006
E0000006
E0000006
E0000006
E0000006
60000006
6000000E
6000000C
6000000C
3000001C
30000018
38000038
1C000030
0C000070
0E0000E0
078003C0
01F00F80
00FFFE00
001FF000
ENDCHAR
STARTCHAR 00D3
ENCODING 211
SWIDTH 698 0
DWIDTH 33 0
BBX 31 44 1 0
BITMAP
00006000
00006000
00006000
0000C000
0000C000
0001C000
00000000
00000000
00000000
00000000
001FF000
00FFFE00
01F00F80
078003C0
0F0000E0
0C000070
1C000030
38000038
30000018
3000001C
7000000C
6000000C
6000000E
6000000E
60000006
E0000006
E0000006
E0000006
E0000006
E0000006
60000006
6000000E
6000000C
6000000C
3000001C
30000018
38000038
1C000030
0C000070
0E0000E0
078003C0
01F00F80
00FFFE00
001FF000
ENDCHAR
STARTCHAR 00D4
ENCODING 212
SWIDTH 698 0
DWIDTH 33 0
BBX 31 43 1 0
BITMAP
00038000
0007C000
000EE000
000C7000
00183800
00301800
00000000
00000000
00000000
001FF000
00FFFE00
01F00F80
078003C0
0F0000E0
0C000070
1C000030
38000038
30000018
3000001C
7000000C
6000000C
6000000E
6000000E
60000006
E0000006
E0000006
E0000006
E0000006
E0000006
60000006
6000000E
6000000C
6000000C
3000001C
30000018
38000038
1C000030
0C000070
0E0000E0
078003C0
01F00F80
00FFFE00
001FF000
ENDCHAR
STARTCHAR 00D5
ENCODING 213
SWIDTH 698 0
DWIDTH 33 0
BBX 31 42 1 0
BITMAP
001C0400
003F0600
0033CC00
0020FC00
00203800
00000000
00000000
00000000
001FF000
00FFFE00
01F00F80
078003C0
0F0000E0
0C000070
1C000030
38000038
30000018
3000001C
7000000C
6000000C
6000000E
6000000E
60000006
E0000006
E0000006
E0000006
E0000006
E0000006
60000006
6000000E
6000000C
6000000C
3000001C
30000018
38000038
1C000030
0C000070
0E0000E0
078003C0
01F00F80
00FFFE00
001FF000
ENDCHAR
STARTCHAR 00D6
ENCODING 214
SWIDTH 698 0
DWIDTH 33 0
BBX 31 42 1 0
BITMAP
00383800
00383800
00383800
00000000
00000000
00000000
00000000
00000000
001FF000
00FFFE00
01F00F80
078003C0
0F0000E0
0C000070
1C000030
38000038
30000018
3000001C
7000000C
6000000C
6000000E
6000000E
60000006
E0000006
E0000006
E0000006
E0000006
E0000006
60000006
6000000E
6000000C
6000000C
3000001C
30000018
38000038
1C000030
0C000070
0E0000E0
078003C0
01F00F80
00FFFE00
001FF000
ENDCHAR
STARTCHAR 00D7
ENCODING 215
SWIDTH 465 0
DWIDTH 22 0
BBX 16 16 3 8
BITMAP
4001
E003
7006
380C
1C18
0E30
0760
03C0
01C0
03E0
0670
0C38
181C
300E
6007
C003
ENDCHAR
STARTCHAR 00D8
ENCODING 216
SWIDTH 698 0
DWIDTH 33 0
BBX 33 34 0 0
BITMAP
000FF80100
007FFF0380
00F807C700
03C001EE00
0780007C00
0700003800
0E00003800
1C00007C00
180000CC00
180001CE00
3800038600
3000070600
30000E0700
30001C0700
3000380300
7000700300
7000E00300
7001C00300
7003800300
7007000300
300E000300
301C000600
3038000600
3070000600
18E0000E00
19C0000C00
1F80001C00
0F00001800
0E00003800
1F00007000
3BC001E000
70F007C000
E07FFF0000
400FF80000
ENDCHAR
STARTCHAR 00D9
ENCODING 217
SWIDTH 698 0
DWIDTH 33 0
BBX 26 44 3 0
BITMAP
00180000
00180000
000C0000
000C0000
000C0000
00060000
00000000
00000000
00000000
00000000
C00000C0
C00000C0
C00000C0
C00000C0
C00000C0
C00000C0
C00000C0
C00000C0
C00000C0
C00000C0
C00000C0
C00000C0
C00000C0
C00000C0
C00000C0
C00000C0
C00000C0
C00000C0
C00000C0
C00000C0
C00000C0
C00000C0
C00000C0
E00000C0
600000C0
600001C0
70000180
30000380
38000300
1C000700
0E001E00
07C07800
01FFF000
007F8000
ENDCHAR
STARTCHAR 00DA
ENCODING 218
SWIDTH 698 0
DWIDTH 33 0
BBX 26 45 3 0
BITMAP
00030000
00030000
00060000
00060000
00060000
000C0000
000C0000
00000000
00000000
00000000
00000000
C00000C0
C00000C0
C00000C0
C00000C0
C00000C0
C00000C0
C00000C0
C00000C0
C00000C0
C00000C0
C00000C0
C00000C0
C00000C0
C00000C0
C00000C0
C00000C0
C00000C0
C00000C0
C00000C0
C00000C0
C00000C0
C00000C0
C00000C0
E00000C0
600000C0
600001C0
70000180
30000380
38000300
1C000700
0E001E00
07C07800
01FFF000
007F8000
ENDCHAR
STARTCHAR 00DB
ENCODING 219
SWIDTH 698 0
DWIDTH 33 0
BBX 26 44 3 0
BITMAP
000E0000
001F0000
003B0000
00718000
00E0C000
00C06000
00000000
00000000
00000000
00000000
C00000C0
C00000C0
C00000C0
C00000C0
C00000C0
C00000C0
C00000C0
C00000C0
C00000C0
C00000C0
C00000C0
C00000C0
C00000C0
C00000C0
C00000C0
C00000C0
C00000C0
C00000C0
C00000C0
C00000C0
C00000C0
C00000C0
C00000C0
E00000C0
600000C0
600001C0
70000180
30000380
38000300
1C000700
0E001E00
07C07800
01FFF000
007F8000
ENDCHAR
STARTCHAR 00DC
ENCODING 220
SWIDTH 698 0
DWIDTH 33 0
BBX 26 43 3 0
BITMAP
00C0E000
00C0E000
00C0E000
00000000
00000000
00000000
00000000
00000000
00000000
C00000C0
C00000C0
C00000C0
C00000C0
C00000C0
C00000C0
C00000C0
C00000C0
C00000C0
C00000C0
C00000C0
C00000C0
C00000C0
C00000C0
C00000C0
C00000C0
C00000C0
C00000C0
C00000C0
C00000C0
C00000C0
C00000C0
C00000C0
E00000C0
600000C0
600001C0
70000180
30000380
38000300
1C000700
0E001E00
07C07800
01FFF000
007F8000
ENDCHAR
STARTCHAR 00DD
ENCODING 221
SWIDTH 529 0
DWIDTH 25 0
BBX 24 45 0 0
BITMAP
000600
000C00
000C00
000C00
001800
001800
001800
000000
000000
000000
000000
E00003
600007
700006
30000E
18000C
180018
0C0038
0E0030
060070
070060
0300C0
0180C0
01C180
00C380
00E300
006700
007600
003C00
001C00
001800
001800
001800
001800
001800
001800
001800
001800
001800
001800
001800
001800
001800
001800
001800
ENDCHAR
STARTCHAR 00DE
ENCODING 222
SWIDTH 571 0
DWIDTH 27 0
BBX 23 34 3 0
BITMAP
C00000
C00000
C00000
C00000
C00000
C00000
C00000
FFFE00
FFFFC0
C001E0
C00070
C00038
C00018
C0000C
C0000C
C0000C
C0000E
C0000C
C0000C
C0000C
C0000C
C00018
C00038
C00070
C001E0
FFFFC0
FFFE00
C00000
C00000
C00000
C00000
C00000
C00000
C00000
ENDCHAR
STARTCHAR 00DF
ENCODING 223
SWIDTH 571 0
DWIDTH 27 0
BBX 21 34 3 0
BITMAP
03F800
0FFE00
1C0F00
380380
700180
6001C0
6000C0
E000C0
C000C0
C000C0
C000C0
C001C0
C00180
C00380
C00F00
C07C00
C07F00
C007C0
C001E0
C00070
C00030
C00038
C00018
C00018
C00018
C00018
C00018
C00018
C00038
C00070
C000E0
C203C0
C3FF80
C3FE00
ENDCHAR
STARTCHAR 00E0
ENCODING 224
SWIDTH 550 0
DWIDTH 26 0
BBX 21 36 2 0
BITMAP
00C000
00E000
006000
006000
007000
003000
000000
000000
000000
000000
01FE00
07FF80
1F01C0
3C0060
380070
700030
600030
000018
000018
000018
0001F8
00FFF8
0FF818
3E0018
780018
600018
E00038
C00038
C00038
C00078
C00078
E000D8
7003D8
380F98
1FFE18
07F000
ENDCHAR
STARTCHAR 00E1
ENCODING 225
SWIDTH 550 0
DWIDTH 26 0
BBX 21 36 2 0
BITMAP
000C00
000C00
001800
001800
001800
003000
000000
000000
000000
000000
01FE00
07FF80
1F01C0
3C0060
380070
700030
600030
000018
000018
000018
0001F8
00FFF8
0FF818
3E0018
780018
600018
E00038
C00038
C00038
C00078
C00078
E000D8
7003D8
380F98
1FFE18
07F000
ENDCHAR
STARTCHAR 00E2
ENCODING 226
SWIDTH 550 0
DWIDTH 26 0
BBX 21 35 2 0
BITMAP
003800
007C00
00CC00
01C600
038300
070380
000000
000000
000000
01FE00
07FF80
1F01C0
3C0060
380070
700030
600030
000018
000018
000018
0001F8
00FFF8
0FF818
3E0018
780018
600018
E00038
C00038
C00038
C00078
C00078
E000D8
7003D8
380F98
1FFE18
07F000
ENDCHAR
STARTCHAR 00E3
ENCODING 227
SWIDTH 550 0
DWIDTH 26 0
BBX 21 34 2 0
BITMAP
0380C0
07E0C0
0678C0
061F80
060700
000000
000000
000000
01FE00
07FF80
1F01C0
3C0060
380070
700030
600030
000018
000018
000018
0001F8
00FFF8
0FF818
3E0018
780018
600018
E00038
C00038
C00038
C00078
C00078
E000D8
7003D8
380F98
1FFE18
07F000
ENDCHAR
STARTCHAR 00E4
ENCODING 228
SWIDTH 550 0
DWIDTH 26 0
BBX 21 34 2 0
BITMAP
038380
038380
038380
000000
000000
000000
000000
000000
01FE00
07FF80
1F01C0
3C0060
380070
700030
600030
000018
000018
000018
0001F8
00FFF8
0FF818
3E0018
780018
600018
E00038
C00038
C00038
C00078
C00078
E000D8
7003D8
380F98
1FFE18
07F000
ENDCHAR
STARTCHAR 00E5
ENCODING 229
SWIDTH 550 0
DWIDTH 26 0
BBX 21 37 2 0
BITMAP
007800
00FE00
01C600
018300
018300
018300
01C600
00FE00
007800
000000
000000
01FE00
07FF80
1F01C0
3C0060
380070
700030
600030
000018
000018
000018
0001F8
00FFF8
0FF818
3E0018
780018
600018
E00038
C00038
C00038
C00078
C00078
E000D8
7003D8
380F98
1FFE18
07F000
ENDCHAR
STARTCHAR 00E6
ENCODING 230
SWIDTH 952 0
DWIDTH 45 0
BBX 41 26 2 0
BITMAP
01FE003F8000
07FF80FFF000
1F03C1E07800
3C00E3801C00
300077000E00
70003E000600
60003C000600
00003C000300
000018000300
000018000300
000018000380
000018000180
07FFFFFFFF80
1FFFFFFFFF80
780018000000
600018000000
E00018000000
C00038000000
C0003C000000
C0003C000300
C0006E000700
E000E6000600
6001C3001C00
380F81C07800
1FFE00FFF000
07F8003F8000
ENDCHAR
STARTCHAR 00E7
ENCODING 231
SWIDTH 529 0
DWIDTH 25 0
BBX 21 37 2 -11
BITMAP
00FE00
07FFC0
0F01E0
1C0070
380038
300018
600008
600000
E00000
C00000
C00000
C00000
C00000
C00000
C00000
C00000
C00000
E00000
600000
600008
300018
380038
1C0070
0F01E0
07FFC0
00FE00
003000
003000
003000
007800
003C00
000C00
000C00
000C00
001C00
00F800
00F000
ENDCHAR
STARTCHAR 00E8
ENCODING 232
SWIDTH 571 0
DWIDTH 27 0
BBX 23 36 2 0
BITMAP
006000
006000
003000
003000
003000
001800
000000
000000
000000
000000
00FE00
07FF80
0F01E0
1C0070
380038
300018
60001C
60000C
E0000C
C00006
C00006
C00006
FFFFFE
FFFFFE
C00000
C00000
C00000
C00000
600000
60000C
70000C
380018
1C0070
0F01E0
07FFC0
00FE00
ENDCHAR
STARTCHAR 00E9
ENCODING 233
SWIDTH 571 0
DWIDTH 27 0
BBX 23 36 2 0
BITMAP
000600
000600
000C00
000C00
000C00
001800
000000
000000
000000
000000
00FE00
07FF80
0F01E0
1C0070
380038
300018
60001C
60000C
E0000C
C00006
C00006
C00006
FFFFFE
FFFFFE
C00000
C00000
C00000
C00000
600000
60000C
70000C
380018
1C0070
0F01E0
07FFC0
00FE00
ENDCHAR
STARTCHAR 00EA
ENCODING 234
SWIDTH 571 0
DWIDTH 27 0
BBX 23 35 2 0
BITMAP
003800
007C00
00EE00
01C700
018300
030180
000000
000000
000000
00FE00
07FF80
0F01E0
1C0070
380038
300018
60001C
60000C
E0000C
C00006
C00006
C00006
FFFFFE
FFFFFE
C00000
C00000
C00000
C00000
600000
60000C
70000C
380018
1C0070
0F01E0
07FFC0
00FE00
ENDCHAR
STARTCHAR 00EB
ENCODING 235
SWIDTH 571 0
DWIDTH 27 0
BBX 23 34 2 0
BITMAP
038380
038380
038380
000000
000000
000000
000000
000000
00FE00
07FF80
0F01E0
1C0070
380038
300018
60001C
60000C
E0000C
C00006
C00006
C00006
FFFFFE
FFFFFE
C00000
C00000
C00000
C00000
600000
60000C
70000C
380018
1C0070
0F01E0
07FFC0
00FE00
ENDCHAR
STARTCHAR 00EC
ENCODING 236
SWIDTH 211 0
DWIDTH 10 0
BBX 4 36 2 0
BITMAP
C0
C0
E0
60
60
70
00
00
00
00
30
30
30
30
30
30
30
30
30
30
30
30
30
30
30
30
30
30
30
30
30
30
30
30
30
30
ENDCHAR
STARTCHAR 00ED
ENCODING 237
SWIDTH 211 0
DWIDTH 10 0
BBX 4 37 4 0
BITMAP
30
30
60
60
60
C0
C0
00
00
00
00
C0
C0
C0
C0
C0
C0
C0
C0
C0
C0
C0
C0
C0
C0
C0
C0
C0
C0
C0
C0
C0
C0
C0
C0
C0
C0
ENDCHAR
STARTCHAR 00EE
ENCODING 238
SWIDTH 211 0
DWIDTH 10 0
BBX 11 36 -1 0
BITMAP
0E00
1F00
1B80
31C0
60E0
E060
0000
0000
0000
0000
0600
0600
0600
0600
0600
0600
0600
0600
0600
0600
0600
0600
0600
0600
0600
0600
0600
0600
0600
0600
0600
0600
0600
0600
0600
0600
ENDCHAR
STARTCHAR 00EF
ENCODING 239
SWIDTH 211 0
DWIDTH 10 0
BBX 11 34 -1 0
BITMAP
E060
E060
E060
0000
0000
0000
0000
0000
0600
0600
0600
0600
0600
0600
0600
0600
0600
0600
0600
0600
0600
0600
0600
0600
0600
0600
0600
0600
0600
0600
0600
0600
0600
0600
ENDCHAR
STARTCHAR 00F0
ENCODING 240
SWIDTH 571 0
DWIDTH 27 0
BBX 23 36 2 0
BITMAP
000040
0000C0
0071C0
007F80
000F80
0007C0
000CE0
001C70
001830
000018
00001C
00000C
00FE0C
07FFCC
0F01E6
1C0076
38003E
70001E
60000E
60000E
C00006
C00006
C00006
C00006
C00006
C00006
C00006
C00006
60000C
60000C
70001C
380038
1C0070
0F01E0
07FFC0
00FE00
ENDCHAR
STARTCHAR 00F1
ENCODING 241
SWIDTH 571 0
DWIDTH 27 0
BBX 21 34 3 0
BITMAP
038180
07E180
0C7180
0C3F00
0C0E00
000000
000000
000000
C1FC00
C7FF00
CF03C0
DC00E0
F80060
F00030
E00030
E00018
E00018
C00018
C00018
C00018
C00018
C00018
C00018
C00018
C00018
C00018
C00018
C00018
C00018
C00018
C00018
C00018
C00018
C00018
ENDCHAR
STARTCHAR 00F2
ENCODING 242
SWIDTH 571 0
DWIDTH 27 0
BBX 23 36 2 0
BITMAP
00C000
006000
006000
006000
003000
003000
000000
000000
000000
000000
00FE00
07FFC0
0F01E0
1C0070
380038
30001C
60000C
60000C
E0000E
C00006
C00006
C00006
C00006
C00006
C00006
C00006
C00006
E0000E
60000C
60000C
30001C
380038
1C0070
0F01E0
07FFC0
00FE00
ENDCHAR
STARTCHAR 00F3
ENCODING 243
SWIDTH 571 0
DWIDTH 27 0
BBX 23 36 2 0
BITMAP
000600
000C00
000C00
001C00
001800
001800
000000
000000
000000
000000
00FE00
07FFC0
0F01E0
1C0070
380038
30001C
60000C
60000C
E0000E
C00006
C00006
C00006
C00006
C00006
C00006
C00006
C00006
E0000E
60000C
60000C
30001C
380038
1C0070
0F01E0
07FFC0
00FE00
ENDCHAR
STARTCHAR 00F4
ENCODING 244
SWIDTH 571 0
DWIDTH 27 0
BBX 23 35 2 0
BITMAP
003800
007C00
00EE00
01C700
018300
030180
000000
000000
000000
00FE00
07FFC0
0F01E0
1C0070
380038
30001C
60000C
60000C
E0000E
C00006
C00006
C00006
C00006
C00006
C00006
C00006
C00006
E0000E
60000C
60000C
30001C
380038
1C0070
0F01E0
07FFC0
00FE00
ENDCHAR
STARTCHAR 00F5
ENCODING 245
SWIDTH 571 0
DWIDTH 27 0
BBX 23 34 2 0
BITMAP
01C0C0
03F0C0
0638C0
061FC0
060700
000000
000000
000000
00FE00
07FFC0
0F01E0
1C0070
380038
30001C
60000C
60000C
E0000E
C00006
C00006
C00006
C00006
C00006
C00006
C00006
C00006
E0000E
60000C
60000C
30001C
380038
1C0070
0F01E0
07FFC0
00FE00
ENDCHAR
STARTCHAR 00F6
ENCODING 246
SWIDTH 571 0
DWIDTH 27 0
BBX 23 34 2 0
BITMAP
038380
038380
038380
000000
000000
000000
000000
000000
00FE00
07FFC0
0F01E0
1C0070
380038
30001C
60000C
60000C
E0000E
C00006
C00006
C00006
C00006
C00006
C00006
C00006
C00006
E0000E
60000C
60000C
30001C
380038
1C0070
0F01E0
07FFC0
00FE00
ENDCHAR
STARTCHAR 00F7
ENCODING 247
SWIDTH 550 0
DWIDTH 26 0
BBX 20 14 3 10
BITMAP
00E000
00E000
00E000
000000
000000
000000
FFFFF0
FFFFF0
000000
000000
000000
00E000
00E000
00E000
ENDCHAR
STARTCHAR 00F8
ENCODING 248
SWIDTH 571 0
DWIDTH 27 0
BBX 25 26 1 0
BITMAP
007F0100
03FFE380
0780FF00
0E003E00
1C001C00
18001E00
30003E00
30007600
7000E700
6001C300
60038300
60060300
600C0300
60180300
60300300
60600300
60C00300
61800700
33000600
36000600
3C000C00
1C001C00
3E003800
7780F000
E3FFE000
407F0000
ENDCHAR
STARTCHAR 00F9
ENCODING 249
SWIDTH 571 0
DWIDTH 27 0
BBX 21 36 3 0
BITMAP
00C000
00C000
006000
006000
006000
003000
000000
000000
000000
000000
C00018
C00018
C00018
C00018
C00018
C00018
C00018
C00018
C00018
C00018
C00018
C00018
C00018
C00018
C00018
C00018
C00018
C00038
C00038
600038
600078
3000F8
3801D8
1E0798
07FF18
01FC18
ENDCHAR
STARTCHAR 00FA
ENCODING 250
SWIDTH 571 0
DWIDTH 27 0
BBX 21 37 3 0
BITMAP
001800
001800
001800
003000
003000
003000
006000
000000
000000
000000
000000
C00018
C00018
C00018
C00018
C00018
C00018
C00018
C00018
C00018
C00018
C00018
C00018
C00018
C00018
C00018
C00018
C00018
C00038
C00038
600038
600078
3000F8
3801D8
1E0798
07FF18
01FC18
ENDCHAR
STARTCHAR 00FB
ENCODING 251
SWIDTH 571 0
DWIDTH 27 0
BBX 21 36 3 0
BITMAP
007000
00F800
01D800
038C00
070600
060300
000000
000000
000000
000000
C00018
C00018
C00018
C00018
C00018
C00018
C00018
C00018
C00018
C00018
C00018
C00018
C00018
C00018
C00018
C00018
C00018
C00038
C00038
600038
600078
3000F8
3801D8
1E0798
07FF18
01FC18
ENDCHAR
STARTCHAR 00FC
ENCODING 252
SWIDTH 571 0
DWIDTH 27 0
BBX 21 34 3 0
BITMAP
060700
060700
060700
000000
000000
000000
000000
000000
C00018
C00018
C00018
C00018
C00018
C00018
C00018
C00018
C00018
C00018
C00018
C00018
C00018
C00018
C00018
C00018
C00018
C00038
C00038
600038
600078
3000F8
3801D8
1E0798
07FF18
01FC18
ENDCHAR
STARTCHAR 00FD
ENCODING 253
SWIDTH 508 0
DWIDTH 24 0
BBX 22 48 1 -11
BITMAP
000C00
000C00
001800
001800
001800
003000
003000
000000
000000
000000
000000
C0001C
600018
600018
700030
300030
300030
180060
180060
1C00E0
0C00C0
0C00C0
0601C0
060180
070180
030300
030300
018300
018600
01C600
00CE00
00CC00
006C00
007C00
007800
003800
003000
003000
003000
006000
006000
00E000
00C000
00C000
01C000
018000
018000
030000
ENDCHAR
STARTCHAR 00FE
ENCODING 254
SWIDTH 571 0
DWIDTH 27 0
BBX 22 45 3 -11
BITMAP
C00000
C00000
C00000
C00000
C00000
C00000
C00000
C00000
C0FE00
C3FF80
C703C0
CC00E0
D80070
F00038
F00018
E00018
E0000C
C0000C
C0000C
C0000C
C0000C
C0000C
C0000C
C0000C
C0000C
E0000C
E00018
F00018
F00038
D80070
CC00E0
C703C0
C3FF80
C0FE00
C00000
C00000
C00000
C00000
C00000
C00000
C00000
C00000
C00000
C00000
C00000
ENDCHAR
STARTCHAR 00FF
ENCODING 255
SWIDTH 508 0
DWIDTH 24 0
BBX 22 45 1 -11
BITMAP
070380
070380
070380
000000
000000
000000
000000
000000
C0001C
600018
600018
700030
300030
300030
180060
180060
1C00E0
0C00C0
0C00C0
0601C0
060180
070180
030300
030300
018300
018600
01C600
00CE00
00CC00
006C00
007C00
007800
003800
003000
003000
003000
006000
006000
00E000
00C000
00C000
01C000
018000
018000
030000
ENDCHAR
ENDFONT
